<svg xmlns="http://www.w3.org/2000/svg" width="147" height="39" viewBox="0 0 147 39" role="img" aria-label="Toolbox">
<title>Toolbox</title>
<rect x="0" y="0" width="147" height="39" fill="#141d18" />
<g shape-rendering="crispEdges" aria-label="Toolbox"><rect x="12" y="9" width="3" height="3" fill="#aac986" /><rect x="15" y="9" width="3" height="3" fill="#aac986" /><rect x="18" y="9" width="3" height="3" fill="#aac986" /><rect x="21" y="9" width="3" height="3" fill="#aac986" /><rect x="24" y="9" width="3" height="3" fill="#aac986" /><rect x="18" y="12" width="3" height="3" fill="#aac986" /><rect x="18" y="15" width="3" height="3" fill="#aac986" /><rect x="18" y="18" width="3" height="3" fill="#aac986" /><rect x="18" y="21" width="3" height="3" fill="#aac986" /><rect x="18" y="24" width="3" height="3" fill="#aac986" /><rect x="18" y="27" width="3" height="3" fill="#aac986" /><rect x="33" y="9" width="3" height="3" fill="#aac986" /><rect x="36" y="9" width="3" height="3" fill="#aac986" /><rect x="39" y="9" width="3" height="3" fill="#aac986" /><rect x="30" y="12" width="3" height="3" fill="#aac986" /><rect x="42" y="12" width="3" height="3" fill="#aac986" /><rect x="30" y="15" width="3" height="3" fill="#aac986" /><rect x="42" y="15" width="3" height="3" fill="#aac986" /><rect x="30" y="18" width="3" height="3" fill="#aac986" /><rect x="42" y="18" width="3" height="3" fill="#aac986" /><rect x="30" y="21" width="3" height="3" fill="#aac986" /><rect x="42" y="21" width="3" height="3" fill="#aac986" /><rect x="30" y="24" width="3" height="3" fill="#aac986" /><rect x="42" y="24" width="3" height="3" fill="#aac986" /><rect x="33" y="27" width="3" height="3" fill="#aac986" /><rect x="36" y="27" width="3" height="3" fill="#aac986" /><rect x="39" y="27" width="3" height="3" fill="#aac986" /><rect x="51" y="9" width="3" height="3" fill="#aac986" /><rect x="54" y="9" width="3" height="3" fill="#aac986" /><rect x="57" y="9" width="3" height="3" fill="#aac986" /><rect x="48" y="12" width="3" height="3" fill="#aac986" /><rect x="60" y="12" width="3" height="3" fill="#aac986" /><rect x="48" y="15" width="3" height="3" fill="#aac986" /><rect x="60" y="15" width="3" height="3" fill="#aac986" /><rect x="48" y="18" width="3" height="3" fill="#aac986" /><rect x="60" y="18" width="3" height="3" fill="#aac986" /><rect x="48" y="21" width="3" height="3" fill="#aac986" /><rect x="60" y="21" width="3" height="3" fill="#aac986" /><rect x="48" y="24" width="3" height="3" fill="#aac986" /><rect x="60" y="24" width="3" height="3" fill="#aac986" /><rect x="51" y="27" width="3" height="3" fill="#aac986" /><rect x="54" y="27" width="3" height="3" fill="#aac986" /><rect x="57" y="27" width="3" height="3" fill="#aac986" /><rect x="66" y="9" width="3" height="3" fill="#aac986" /><rect x="66" y="12" width="3" height="3" fill="#aac986" /><rect x="66" y="15" width="3" height="3" fill="#aac986" /><rect x="66" y="18" width="3" height="3" fill="#aac986" /><rect x="66" y="21" width="3" height="3" fill="#aac986" /><rect x="66" y="24" width="3" height="3" fill="#aac986" /><rect x="66" y="27" width="3" height="3" fill="#aac986" /><rect x="69" y="27" width="3" height="3" fill="#aac986" /><rect x="72" y="27" width="3" height="3" fill="#aac986" /><rect x="75" y="27" width="3" height="3" fill="#aac986" /><rect x="78" y="27" width="3" height="3" fill="#aac986" /><rect x="84" y="9" width="3" height="3" fill="#aac986" /><rect x="87" y="9" width="3" height="3" fill="#aac986" /><rect x="90" y="9" width="3" height="3" fill="#aac986" /><rect x="93" y="9" width="3" height="3" fill="#aac986" /><rect x="84" y="12" width="3" height="3" fill="#aac986" /><rect x="96" y="12" width="3" height="3" fill="#aac986" /><rect x="84" y="15" width="3" height="3" fill="#aac986" /><rect x="96" y="15" width="3" height="3" fill="#aac986" /><rect x="84" y="18" width="3" height="3" fill="#aac986" /><rect x="87" y="18" width="3" height="3" fill="#aac986" /><rect x="90" y="18" width="3" height="3" fill="#aac986" /><rect x="93" y="18" width="3" height="3" fill="#aac986" /><rect x="84" y="21" width="3" height="3" fill="#aac986" /><rect x="96" y="21" width="3" height="3" fill="#aac986" /><rect x="84" y="24" width="3" height="3" fill="#aac986" /><rect x="96" y="24" width="3" height="3" fill="#aac986" /><rect x="84" y="27" width="3" height="3" fill="#aac986" /><rect x="87" y="27" width="3" height="3" fill="#aac986" /><rect x="90" y="27" width="3" height="3" fill="#aac986" /><rect x="93" y="27" width="3" height="3" fill="#aac986" /><rect x="105" y="9" width="3" height="3" fill="#aac986" /><rect x="108" y="9" width="3" height="3" fill="#aac986" /><rect x="111" y="9" width="3" height="3" fill="#aac986" /><rect x="102" y="12" width="3" height="3" fill="#aac986" /><rect x="114" y="12" width="3" height="3" fill="#aac986" /><rect x="102" y="15" width="3" height="3" fill="#aac986" /><rect x="114" y="15" width="3" height="3" fill="#aac986" /><rect x="102" y="18" width="3" height="3" fill="#aac986" /><rect x="114" y="18" width="3" height="3" fill="#aac986" /><rect x="102" y="21" width="3" height="3" fill="#aac986" /><rect x="114" y="21" width="3" height="3" fill="#aac986" /><rect x="102" y="24" width="3" height="3" fill="#aac986" /><rect x="114" y="24" width="3" height="3" fill="#aac986" /><rect x="105" y="27" width="3" height="3" fill="#aac986" /><rect x="108" y="27" width="3" height="3" fill="#aac986" /><rect x="111" y="27" width="3" height="3" fill="#aac986" /><rect x="120" y="9" width="3" height="3" fill="#aac986" /><rect x="132" y="9" width="3" height="3" fill="#aac986" /><rect x="120" y="12" width="3" height="3" fill="#aac986" /><rect x="132" y="12" width="3" height="3" fill="#aac986" /><rect x="123" y="15" width="3" height="3" fill="#aac986" /><rect x="129" y="15" width="3" height="3" fill="#aac986" /><rect x="126" y="18" width="3" height="3" fill="#aac986" /><rect x="123" y="21" width="3" height="3" fill="#aac986" /><rect x="129" y="21" width="3" height="3" fill="#aac986" /><rect x="120" y="24" width="3" height="3" fill="#aac986" /><rect x="132" y="24" width="3" height="3" fill="#aac986" /><rect x="120" y="27" width="3" height="3" fill="#aac986" /><rect x="132" y="27" width="3" height="3" fill="#aac986" /></g>
</svg>
