<svg xmlns="http://www.w3.org/2000/svg" width="960" height="380" viewBox="0 0 960 380" role="img" aria-labelledby="title desc">
<title id="title">Brasilius — Leo&#x27;s personal terminal</title><desc id="desc">Matcha SF Pro typography, a hovering rocket, twinkling stars and a mountain horizon. Aerospace engineer and software developer in Los Angeles.</desc>
<style>
  .float { animation: float 5s steps(5, end) infinite; }
  .spark { animation: sparkle 4s steps(2, end) infinite; }
  .steam { animation: float 3s steps(4, end) infinite; }
  @keyframes float { 0%,100% { transform: translateY(0); } 50% { transform: translateY(-8px); } }
  @keyframes sparkle { 0%,100% { opacity: .35; } 50% { opacity: 1; } }
  @media (prefers-reduced-motion: reduce) { .float,.spark,.steam { animation: none; } }
</style>
<rect x="0" y="0" width="960" height="380" fill="#141d18" />
<rect x="1" y="1" width="958" height="378" fill="none" stroke="#3a5140"/>
<rect x="1" y="1" width="958" height="38" fill="#1d2b22" /><text x="24" y="25" fill="#aac986" font-family="'SF Pro Display', 'SF Pro Text', -apple-system, BlinkMacSystemFont, system-ui, 'Segoe UI', Helvetica, Arial, sans-serif" font-size="12" font-weight="400">BRASI / PERSONAL TERMINAL</text><text x="701" y="25" fill="#8fa58c" font-family="'SF Pro Display', 'SF Pro Text', -apple-system, BlinkMacSystemFont, system-ui, 'Segoe UI', Helvetica, Arial, sans-serif" font-size="12" font-weight="400">LOS ANGELES  /  EARTH</text><rect x="917" y="17" width="4" height="4" fill="#aac986" /><rect x="927" y="17" width="4" height="4" fill="#3a5140" /><rect x="937" y="17" width="4" height="4" fill="#3a5140" /><text x="40" y="86" fill="#e0e8ce" font-family="'SF Pro Display', 'SF Pro Text', -apple-system, BlinkMacSystemFont, system-ui, 'Segoe UI', Helvetica, Arial, sans-serif" font-size="13" font-weight="400">HELLO, WORLD. I&#x27;M LEO.</text><text x="40" y="182" fill="#aac986" font-family="'SF Pro Display', 'SF Pro Text', -apple-system, BlinkMacSystemFont, system-ui, 'Segoe UI', Helvetica, Arial, sans-serif" font-size="88" font-weight="700">BRASILIUS</text><text x="40" y="218" fill="#e0e8ce" font-family="'SF Pro Display', 'SF Pro Text', -apple-system, BlinkMacSystemFont, system-ui, 'Segoe UI', Helvetica, Arial, sans-serif" font-size="17" font-weight="400">AEROSPACE ENGINEER / SOFTWARE DEVELOPER</text><text x="40" y="247" fill="#8fa58c" font-family="'SF Pro Display', 'SF Pro Text', -apple-system, BlinkMacSystemFont, system-ui, 'Segoe UI', Helvetica, Arial, sans-serif" font-size="15" font-weight="400">Open source. Linux. Rockets. Drones.</text><rect x="40" y="274" width="286" height="30" fill="#1d2b22" /><rect x="53" y="286" width="6" height="6" fill="#aac986" class="spark"/><text x="70" y="294" fill="#aac986" font-family="'SF Pro Display', 'SF Pro Text', -apple-system, BlinkMacSystemFont, system-ui, 'Segoe UI', Helvetica, Arial, sans-serif" font-size="12" font-weight="400">MATCHA FUELED / FLIGHT MINDED</text><g shape-rendering="crispEdges"><rect x="678" y="83" width="4" height="4" fill="#aac986" class="spark"/><rect x="899" y="106" width="4" height="4" fill="#aac986" class="spark"/><rect x="723" y="182" width="3" height="3" fill="#aac986" class="spark"/><rect x="884" y="215" width="3" height="3" fill="#aac986" class="spark"/><rect x="666" y="250" width="3" height="3" fill="#aac986" class="spark"/><path d="M830 65h32v8h8v32h-8v8h-32v-8h-8V73h8z" fill="#3a5140"/><path d="M640 306h32v-16h24v-20h24v-20h24v20h24v20h24v16h32v-32h24v-20h24v-24h24v24h24v20h24v32h16v24H640z" fill="#26382b"/><g class="float"><path d="M790 125h8v8h8v16h8v64h-8v16h-24v-16h-8v-64h8v-16h8z" fill="#e0e8ce"/><rect x="782" y="157" width="24" height="24" fill="#3a5140" /><rect x="790" y="165" width="8" height="8" fill="#aac986" /><path d="M774 189h-8v16h-8v24h16z M814 189h8v16h8v24h-16z" fill="#789763"/><path class="spark" d="M782 237h24v16h-8v16h-8v-16h-8z" fill="#aac986"/></g></g><rect x="24" y="330" width="912" height="1" fill="#3a5140" /><text x="40" y="357" fill="#8fa58c" font-family="'SF Pro Display', 'SF Pro Text', -apple-system, BlinkMacSystemFont, system-ui, 'Segoe UI', Helvetica, Arial, sans-serif" font-size="12" font-weight="400">01 / ENGINEER</text><text x="345" y="357" fill="#8fa58c" font-family="'SF Pro Display', 'SF Pro Text', -apple-system, BlinkMacSystemFont, system-ui, 'Segoe UI', Helvetica, Arial, sans-serif" font-size="12" font-weight="400">02 / TINKERER</text><text x="650" y="357" fill="#8fa58c" font-family="'SF Pro Display', 'SF Pro Text', -apple-system, BlinkMacSystemFont, system-ui, 'Segoe UI', Helvetica, Arial, sans-serif" font-size="12" font-weight="400">03 / EXPLORER</text>
</svg>
